<svg version="1.1" id="Layer_1" xmlns="http://www.w3.org/2000/svg" xmlns:xlink="http://www.w3.org/1999/xlink" x="0px" y="0px"
	 width="60" height="60" viewBox="250 150 520 370" enable-background="new 0 0 1024 672" xml:space="preserve">
<path fill="#e45b00" opacity="1.000000" stroke="none" 
	d="
M371.000000,108.972336 
	C451.820404,108.982887 532.140808,108.990974 612.461243,108.999641 
	C613.794373,108.999786 615.127502,109.001183 616.460571,109.011818 
	C631.975586,109.135658 639.930420,116.984871 639.971313,132.431885 
	C640.043701,159.760696 640.041504,187.089783 640.032166,214.418747 
	C640.021423,246.079727 639.970581,277.740692 639.934204,309.401672 
	C639.926086,316.426178 639.921326,316.382477 633.047119,316.245544 
	C628.884277,316.162567 624.715515,316.151947 620.554443,316.276550 
	C617.768127,316.359985 616.655029,315.175415 616.687500,312.439087 
	C616.754517,306.774323 616.674988,301.107910 616.675354,295.442200 
	C616.678528,243.450073 616.688416,191.457947 616.688904,139.465820 
	C616.688965,132.230728 616.670288,132.221344 609.579102,132.221954 
	C523.759033,132.229385 437.938995,132.238831 352.118958,132.251221 
	C345.073090,132.252243 345.017334,132.263977 345.015442,139.534958 
	C344.985138,256.183624 344.954742,372.832306 344.977722,489.480988 
	C344.979767,499.944855 344.397125,498.870514 354.541870,498.877411 
	C404.534119,498.911377 454.526703,498.942993 504.518280,498.751587 
	C509.342010,498.733154 512.080505,500.144562 514.270264,504.473206 
	C517.098999,510.064972 520.775513,515.227905 524.022705,520.471680 
	C522.522888,522.691589 520.513306,522.020325 518.798340,522.021912 
	C460.140778,522.077393 401.483154,522.118164 342.825623,522.086121 
	C330.132080,522.079163 321.724731,513.721985 321.721191,501.128448 
	C321.686188,377.147217 321.682770,253.165985 321.713928,129.184753 
	C321.716919,117.370125 330.298035,109.073761 342.506012,108.940857 
	C351.836151,108.839294 361.168579,108.952347 371.000000,108.972336 
z"/>
<path fill="#e45b00" opacity="1.000000" stroke="none" 
	d="
M682.831787,541.953369 
	C640.643982,563.169922 599.795044,561.613892 561.226196,534.725281 
	C533.747681,515.568481 518.180481,488.507019 514.623352,454.926270 
	C508.499695,397.115753 546.463745,349.964569 595.275574,335.762573 
	C662.453552,316.216827 730.718262,359.949799 740.476685,428.162445 
	C746.978638,473.612366 724.168640,519.067566 682.831787,541.953369 
M627.487732,352.083496 
	C619.101440,351.920929 610.926086,353.269043 602.858215,355.458038 
	C558.031860,367.620514 528.837769,412.331055 536.287048,457.433289 
	C545.572083,513.650024 601.973389,548.057800 656.297302,530.645935 
	C704.387939,515.231934 731.559814,462.800537 715.862305,415.708038 
	C703.284607,377.974854 669.322266,353.255341 627.487732,352.083496 
z"/>
<path fill="#e45b00" opacity="1.000000" stroke="none" 
	d="
M536.999268,274.896454 
	C492.840454,274.921875 449.181458,274.947937 405.522461,274.973114 
	C402.523926,274.974823 399.509186,275.099304 396.606537,274.130615 
	C391.207947,272.329010 388.183167,267.572113 388.682312,261.709808 
	C389.124390,256.517456 393.344269,252.422455 398.956238,251.819366 
	C400.276611,251.677444 401.619507,251.720047 402.952057,251.720001 
	C454.943024,251.717926 506.934052,251.743332 558.924927,251.690628 
	C564.580750,251.684891 569.142090,253.310074 571.523865,258.779633 
	C574.667542,265.998932 569.882324,273.897797 561.970398,274.293610 
	C553.823669,274.701233 545.657043,274.712311 536.999268,274.896454 
z"/>
<path fill="#e45b00" opacity="1.000000" stroke="none" 
	d="
M395.248932,206.301300 
	C389.465973,202.393814 387.495300,197.778778 389.072083,192.587372 
	C390.607208,187.532959 394.718384,184.711166 401.014893,184.708069 
	C454.114349,184.681915 507.213837,184.680267 560.313293,184.719131 
	C567.279968,184.724228 572.384216,189.622940 572.370361,195.974457 
	C572.356384,202.392822 567.369690,207.263824 560.314331,207.271240 
	C507.214996,207.327011 454.115540,207.312195 401.016144,207.269119 
	C399.221222,207.267670 397.426727,206.733047 395.248932,206.301300 
z"/>
<path fill="#e45b00" opacity="1.000000" stroke="none" 
	d="
M436.000000,341.957825 
	C424.840027,341.955505 414.179932,341.979919 403.520172,341.931824 
	C401.534119,341.922852 399.509338,341.817505 397.571747,341.419342 
	C392.372284,340.350769 389.038452,336.459503 388.719971,331.371887 
	C388.392731,326.143982 391.057251,321.885132 395.915680,320.010834 
	C398.278107,319.099426 400.767944,318.948029 403.287842,318.949432 
	C427.605804,318.962921 451.923828,318.927155 476.241760,318.955841 
	C484.710419,318.965820 489.961670,324.225464 489.269165,331.833008 
	C488.719238,337.874359 483.646301,341.901428 475.974854,341.963684 
	C462.817444,342.070404 449.658386,341.971832 436.000000,341.957825 
z"/>
<path fill="#e45b00" opacity="1.000000" stroke="none" 
	d="
M621.633057,455.638977 
	C637.791504,437.906067 653.712830,420.436584 669.618103,402.952515 
	C674.152832,397.967743 680.253357,396.419769 685.310730,399.038666 
	C690.173218,401.556641 692.433044,406.495087 691.420105,412.049713 
	C691.041992,414.123108 690.029480,415.744293 688.663025,417.251312 
	C666.638977,441.540497 644.654968,465.866058 622.584534,490.113037 
	C615.851807,497.509674 610.193359,497.417542 603.160461,490.246613 
	C592.086060,478.954742 580.991028,467.682983 569.864990,456.442047 
	C564.003662,450.520203 563.418762,443.522095 568.463318,438.296112 
	C573.410095,433.171326 580.623535,433.714630 586.518799,439.535095 
	C594.099976,447.020142 601.839539,454.346710 609.329834,461.920563 
	C611.870056,464.489075 613.699158,465.053314 616.041504,461.825928 
	C617.596069,459.683990 619.591614,457.862030 621.633057,455.638977 
z"/>
</svg>