<svg version="1.1" id="Layer_1" xmlns="http://www.w3.org/2000/svg" xmlns:xlink="http://www.w3.org/1999/xlink" x="0px" y="0px"
	 width="60" height="60" viewBox="250 150 520 370" enable-background="new 0 0 1024 672" xml:space="preserve">
<path fill="#e45b00" opacity="1.000000" stroke="none" 
	d="
M302.826172,360.000000 
	C302.807831,303.850159 302.785736,248.200317 302.779663,192.550476 
	C302.778748,184.124649 304.476471,182.334625 312.633026,179.266205 
	C328.691437,173.225128 344.780792,167.364990 361.665253,163.996201 
	C407.951263,154.761215 452.056305,159.362396 492.839783,184.751801 
	C495.219940,186.233566 496.983185,185.965881 499.228363,184.727539 
	C521.010681,172.713150 544.141907,164.514084 568.823303,161.182785 
	C587.884644,158.610031 606.939270,159.172745 626.006104,162.032623 
	C646.258545,165.070312 665.344055,171.767441 684.259094,179.190552 
	C688.918457,181.019089 691.419922,184.138672 691.404724,189.406967 
	C691.312073,221.397202 691.355225,253.387802 691.324829,285.378265 
	C691.318848,291.670532 688.411682,295.233307 683.358215,295.349670 
	C677.927490,295.474731 674.750244,291.970703 674.740662,285.466553 
	C674.698120,256.641876 674.648926,227.816635 674.821106,198.992920 
	C674.844910,195.012558 673.573364,193.039383 669.875732,191.625198 
	C641.568787,180.798828 612.490234,174.629242 582.008667,176.204590 
	C555.242371,177.587952 530.432190,185.536697 506.911926,198.062119 
	C503.640289,199.804413 503.350616,202.410080 503.353729,205.574036 
	C503.393524,246.228531 503.371796,286.883087 503.365082,327.537628 
	C503.361237,350.863922 503.337524,374.190247 503.377991,397.516479 
	C503.382568,400.142303 502.964630,402.824615 503.935974,405.749847 
	C509.200256,405.975739 513.811523,403.304169 518.770813,402.332672 
	C521.539368,401.790344 524.209534,400.758331 526.969849,400.157684 
	C531.144653,399.249237 533.844421,401.362274 534.978027,405.104004 
	C536.115967,408.860291 535.036377,412.477783 531.073425,413.705200 
	C520.585876,416.953278 509.963867,419.767700 499.388763,422.731110 
	C498.054016,423.105133 496.750275,422.772430 495.482941,422.282471 
	C465.325012,410.623352 433.895294,407.300476 401.845093,407.892090 
	C372.691620,408.430267 344.208893,412.938507 316.444427,421.902405 
	C308.506805,424.465118 302.876251,420.394012 302.847412,411.983551 
	C302.788544,394.822571 302.828430,377.661194 302.826172,360.000000 
M487.664612,286.500061 
	C487.662384,259.345428 487.649200,232.190765 487.674744,205.036148 
	C487.677338,202.287521 487.483643,199.982391 484.729614,198.197906 
	C464.419983,185.038193 442.106537,178.009155 418.085236,176.338470 
	C385.366302,174.062881 354.266357,181.115036 323.979706,192.913773 
	C320.309845,194.343430 319.327637,196.345078 319.331390,199.964417 
	C319.399994,266.435516 319.373596,332.906738 319.399780,399.377930 
	C319.400482,401.129761 318.862701,403.084930 320.888306,404.865967 
	C375.790985,389.682922 431.205963,389.354187 487.664886,403.600464 
	C487.664886,364.314545 487.664886,325.907318 487.664612,286.500061 
z"/>
<path fill="#e45b00" opacity="1.000000" stroke="none" 
	d="
M739.862915,477.834229 
	C717.060242,502.648376 688.808044,515.227478 655.760925,514.988525 
	C600.717712,514.590637 555.915955,476.951019 548.355713,425.380554 
	C542.592041,386.064728 555.733643,353.214630 586.393555,328.307953 
	C636.647705,287.483795 714.843018,300.117279 749.714905,355.348480 
	C763.729309,377.544952 768.021667,401.788391 763.781128,427.675201 
	C760.676575,446.627594 752.391479,463.027008 739.862915,477.834229 
M590.205872,349.706116 
	C572.458740,369.255859 563.229858,391.677185 566.110474,418.557831 
	C570.622681,460.663940 606.295898,493.237946 648.988953,496.579620 
	C673.589172,498.505157 695.964661,491.784637 714.951843,475.816010 
	C741.136169,453.794464 752.011292,425.591400 744.741760,391.977783 
	C735.849182,350.859039 699.235779,323.244720 656.867004,322.393066 
	C631.157349,321.876312 609.018005,331.043976 590.205872,349.706116 
z"/>
<path fill="#e45b00" opacity="1.000000" stroke="none" 
	d="
M398.999939,449.340332 
	C362.849274,449.347168 327.198608,449.357025 291.547974,449.357849 
	C280.647491,449.358124 276.743439,445.500427 276.743073,434.742920 
	C276.740631,362.608673 276.741425,290.474457 276.744781,218.340210 
	C276.744843,217.008011 276.684540,215.664169 276.831360,214.345688 
	C277.411713,209.134491 280.935425,205.777191 285.620117,205.881332 
	C289.863342,205.975662 293.515991,209.515457 294.073242,214.286942 
	C294.303894,216.261749 294.194397,218.279419 294.194153,220.277588 
	C294.185364,288.580048 294.169006,356.882507 294.160614,425.184967 
	C294.159668,432.653442 294.178955,432.653503 301.425293,432.688293 
	C301.758484,432.689880 302.092316,432.702240 302.424774,432.686768 
	C310.980530,432.289185 319.023865,432.722656 327.637787,428.341827 
	C340.763245,421.666565 355.999573,420.302277 370.762573,418.753113 
	C392.023071,416.522186 413.298279,416.677155 434.559387,418.747559 
	C448.356079,420.091095 461.795013,423.216583 475.009827,427.327148 
	C476.911255,427.918610 479.117340,428.708832 479.880615,430.587494 
	C481.558319,434.717010 484.717926,434.924927 488.405182,434.756134 
	C492.227783,434.581024 496.066284,434.746460 499.897766,434.772186 
	C505.820709,434.811920 510.894257,432.853333 515.330200,428.833038 
	C524.118591,420.868164 536.057007,424.652130 538.838379,436.163971 
	C541.557373,447.418060 534.455322,459.376526 523.060425,461.081512 
	C507.022705,463.481262 490.838104,462.679962 474.749817,461.076630 
	C470.792175,460.682220 467.355682,458.132812 466.320770,454.125977 
	C465.225006,449.883514 462.714996,449.267456 458.972504,449.288727 
	C439.148865,449.401428 419.324219,449.340607 398.999939,449.340332 
z"/>
<path fill="#e45b00" opacity="1.000000" stroke="none" 
	d="
M699.707642,218.064636 
	C699.721741,215.577438 699.616394,213.568756 699.774170,211.580978 
	C700.123596,207.178604 703.150757,204.092636 707.445679,203.794907 
	C711.866272,203.488480 714.864746,205.684433 716.165649,209.759247 
	C716.857666,211.926712 716.922119,214.358337 716.927246,216.671494 
	C716.983398,242.163666 716.972656,267.656006 716.977295,293.148285 
	C716.977478,293.981049 717.002930,294.819031 716.924255,295.645752 
	C716.391785,301.242859 712.446777,305.374298 707.856018,305.173767 
	C702.995422,304.961456 699.756470,301.072327 699.736389,295.029755 
	C699.673279,276.035614 699.705688,257.041168 699.702820,238.046829 
	C699.701782,231.548767 699.705811,225.050705 699.707642,218.064636 
z"/>
<path fill="#e45b00" opacity="1.000000" stroke="none" 
	d="
M546.252930,230.318542 
	C544.583008,230.771484 543.318115,231.234283 542.012573,231.445938 
	C537.515381,232.174942 534.337097,230.333649 533.645996,226.441025 
	C532.929443,222.405014 534.576294,219.789932 538.625610,218.526291 
	C560.176697,211.801071 582.227844,209.743256 604.682983,211.184525 
	C616.011780,211.911667 627.045959,214.298706 638.040710,216.936172 
	C638.686890,217.091171 639.320557,217.301117 639.955811,217.498947 
	C645.133606,219.111404 647.365295,222.440750 646.079773,226.629456 
	C644.887512,230.514084 641.154785,232.207596 636.263245,230.712204 
	C629.722656,228.712692 623.082336,227.215622 616.330261,226.222000 
	C592.830383,222.763748 569.586853,223.945984 546.252930,230.318542 
z"/>
<path fill="#e45b00" opacity="1.000000" stroke="none" 
	d="
M642.287476,274.789978 
	C639.739624,275.539856 637.673462,275.192078 635.547058,274.546997 
	C605.574585,265.454102 575.572266,266.536194 545.564026,274.388641 
	C545.082031,274.514740 544.614746,274.696564 544.134033,274.828491 
	C538.220886,276.451141 534.870972,275.157532 533.508118,270.730286 
	C532.187317,266.439819 534.444580,263.399323 540.355896,261.743622 
	C573.101929,252.571671 605.914429,252.313004 638.764954,261.156799 
	C641.995056,262.026398 645.313782,263.065918 646.112854,267.016968 
	C646.781860,270.324799 645.578430,272.881714 642.287476,274.789978 
z"/>
<path fill="#e45b00" opacity="1.000000" stroke="none" 
	d="
M429.545074,226.488251 
	C404.740204,222.674133 380.757385,224.815735 357.050873,231.171555 
	C356.249146,231.386520 355.428345,231.592972 354.605255,231.655045 
	C350.692108,231.950180 347.559601,230.729401 346.709290,226.543732 
	C345.876648,222.445129 347.885315,219.832138 351.838593,218.722427 
	C376.079376,211.917877 400.609833,208.913681 425.787323,212.259979 
	C435.538391,213.555984 445.132416,215.347305 454.577576,217.995209 
	C459.821136,219.465210 462.228119,222.903061 461.100098,226.901276 
	C459.991821,230.829651 455.811981,232.750351 450.889069,231.170319 
	C444.049469,228.975113 436.997192,227.868881 429.545074,226.488251 
z"/>
<path fill="#e45b00" opacity="1.000000" stroke="none" 
	d="
M354.330658,262.091431 
	C385.364441,253.646713 416.138184,253.246704 447.016144,260.638275 
	C449.440186,261.218536 451.845581,261.922363 454.198578,262.743713 
	C458.390045,264.206787 460.214417,267.468781 459.108826,271.246033 
	C458.062927,274.819458 454.497772,276.799652 450.306030,275.639313 
	C440.822662,273.014069 431.243073,271.115601 421.441650,270.039703 
	C400.498535,267.740875 379.921600,269.633392 359.544006,274.602570 
	C358.897736,274.760132 358.273407,275.006256 357.629333,275.174500 
	C351.588257,276.752228 347.746521,275.245422 346.644348,270.875031 
	C345.560883,266.578461 347.752441,263.986420 354.330658,262.091431 
z"/>
<path fill="#e45b00" opacity="1.000000" stroke="none" 
	d="
M392.058289,300.687927 
	C412.419464,299.982758 432.102417,301.098541 451.320648,306.729126 
	C452.276581,307.009216 453.249176,307.248260 454.178772,307.599609 
	C458.555084,309.253937 460.553589,312.735992 458.934814,316.524719 
	C457.242188,320.486298 453.970673,321.768494 449.902588,320.500641 
	C440.977570,317.718994 431.849121,316.100433 422.568695,315.064423 
	C400.153412,312.562042 378.086182,314.216095 356.360229,320.247345 
	C353.822754,320.951782 351.489777,321.231293 349.243286,319.568726 
	C347.037354,317.936066 346.076477,315.703186 346.365967,313.048279 
	C346.661835,310.334534 348.139954,308.429626 350.884674,307.704895 
	C364.240143,304.178406 377.665375,301.053528 392.058289,300.687927 
z"/>
<path fill="#e45b00" opacity="1.000000" stroke="none" 
	d="
M687.919189,413.919281 
	C675.102722,427.012878 662.538086,439.858307 649.971558,452.701843 
	C644.706665,458.082733 637.721924,457.919983 632.437927,452.617767 
	C621.396423,441.538269 610.125366,430.686707 599.129517,419.562683 
	C592.049194,412.399811 594.567383,402.319641 603.785095,400.111053 
	C607.843567,399.138672 611.280334,400.338501 614.247559,403.263062 
	C621.594971,410.504974 629.004517,417.683868 636.385376,424.891907 
	C641.172974,429.567413 641.194641,429.595032 646.086670,424.689697 
	C663.003052,407.727570 679.895508,390.741516 696.809326,373.776855 
	C700.863525,369.710419 705.876282,368.704651 710.463379,370.961182 
	C714.951172,373.168854 717.076721,377.390289 716.400757,382.533173 
	C716.030396,385.350800 714.468933,387.390167 712.533264,389.313446 
	C704.387146,397.407135 696.287109,405.547241 687.919189,413.919281 
z"/>
</svg>