<svg version="1.1" id="Layer_1" xmlns="http://www.w3.org/2000/svg" xmlns:xlink="http://www.w3.org/1999/xlink" x="0px" y="0px"
	width="60" height="60" viewBox="450 200 750 600" enable-background="new 0 0 1536 1024" xml:space="preserve">
<path fill="none" opacity="1.000000" stroke="#e45b00" stroke-linecap="round" stroke-linejoin="round" stroke-width="24.000000"
	d="
M484.000000,662.500000 
	C520.666687,662.500000 557.333313,662.500000 594.000000,662.500000 
	C594.833313,662.500000 595.667969,662.530273 596.499817,662.495300 
	C604.849182,662.144958 607.500000,659.370605 607.500000,651.000000 
	C607.500000,550.333313 607.500000,449.666656 607.500000,349.000000 
	C607.500000,310.333344 607.538574,271.666595 607.474915,233.000046 
	C607.457397,222.329712 606.454651,220.758438 594.998535,220.630280 
	C562.002686,220.261185 528.999390,220.610321 496.000397,220.429382 
	C486.711914,220.378464 481.671021,227.684158 481.548096,235.000809 
	C481.363342,245.997711 480.898773,257.044098 481.701538,267.985199 
	C482.281830,275.894379 481.399658,283.666016 481.482391,291.500183 
	C481.563324,299.165985 481.090424,306.861298 481.611145,314.492432 
	C482.170685,322.692657 481.723083,330.830139 481.540070,339.000885 
	C481.357239,347.163452 481.499786,355.333344 481.500061,363.500000 
	C481.500549,379.333344 480.921906,395.193604 481.658875,410.992584 
	C482.430084,427.525757 480.291046,444.030029 481.653015,460.487335 
	C482.334869,468.726654 481.416809,476.832916 481.485382,485.000122 
	C481.552551,492.999573 481.499359,501.000000 481.500092,509.000000 
	C481.501495,524.166687 480.998657,539.356567 481.702576,554.490601 
	C482.077148,562.543701 481.465881,570.499939 481.494019,578.500000 
	C481.521606,586.333252 480.848022,594.236511 481.677734,601.980957 
	C482.561768,610.232239 481.317108,618.331177 481.467102,626.500610 
	C481.616974,634.664551 480.654327,642.946838 481.731476,650.968933 
	C482.869019,659.440857 481.658875,667.665588 481.521454,676.000366 
	C481.414307,682.498596 481.494995,689.000000 481.501129,695.500000 
	C481.510956,705.923645 488.076355,712.497559 498.500000,712.498169 
	C564.166687,712.501892 629.833313,712.497742 695.500000,712.510498 
	C697.500000,712.510864 699.500000,712.666687 701.500000,712.750000 
"/>
<path fill="none" opacity="1.000000" stroke="#e45b00" stroke-linecap="round" stroke-linejoin="round" stroke-width="23.000000"
	d="
M873.250000,654.000000 
	C875.919556,638.335327 879.348450,622.815918 883.589600,607.524841 
	C890.135376,583.924500 898.581970,561.008850 910.485718,539.492126 
	C911.097046,538.387024 911.726074,537.209961 911.959045,535.992188 
	C912.768188,531.762878 914.976807,526.637390 910.831543,523.741028 
	C907.358093,521.313965 902.426392,522.807495 898.530151,524.566711 
	C887.106567,529.724548 876.772339,536.742065 867.035889,544.544739 
	C848.276855,559.577881 832.597168,577.375366 821.056335,598.530701 
	C810.716370,617.484985 803.390503,637.503479 799.765198,658.960327 
	C798.498230,666.459106 799.189026,674.329895 796.000305,681.500244 
	C785.853638,684.082520 775.373047,685.310425 765.501038,689.002747 
	C757.950684,691.826660 750.989807,695.507446 744.390991,700.351440 
	C733.019836,708.698608 731.986023,722.309082 741.530396,733.975159 
	C750.550049,744.999817 762.300842,752.362488 774.980347,758.540405 
	C803.634460,772.501770 834.146057,779.671021 865.494995,784.036011 
	C880.770203,786.162842 896.073547,787.476135 911.488403,788.234985 
	C920.165527,788.662231 928.855591,789.283508 937.494385,788.879883 
	C952.339417,788.186096 967.186401,787.754028 982.020996,786.200317 
	C1002.917053,784.011902 1023.675842,781.118103 1043.966919,775.871948 
	C1076.617798,767.429993 1108.258179,756.334595 1135.481567,735.475891 
	C1142.820923,729.852478 1149.527710,723.462830 1154.920166,715.942749 
	C1158.575928,710.844482 1160.374390,704.952271 1159.000000,698.500000 
"/>
<path fill="none" opacity="1.000000" stroke="#e45b00" stroke-linecap="round" stroke-linejoin="round" stroke-width="22.000000"
	d="
M1045.500000,477.000000 
	C1047.763794,411.343140 1045.855591,345.664917 1046.531494,280.000336 
	C1046.629395,270.483765 1044.272217,267.663910 1033.999512,267.537842 
	C1021.168152,267.380371 1008.333313,267.500000 995.500000,267.500000 
	C945.833313,267.500000 896.166687,267.500000 846.500000,267.500000 
	C798.333313,267.500000 750.166687,267.489624 702.000000,267.512878 
	C695.833252,267.515869 689.689575,267.150452 683.495117,267.342682 
	C671.511841,267.714569 659.500000,267.166687 647.500000,267.000031 
"/>
<path fill="none" opacity="1.000000" stroke="#e45b00" stroke-linecap="round" stroke-linejoin="round" stroke-width="18.000000"
	d="
M796.500000,681.500000 
	C810.638794,701.001587 830.495850,712.242004 852.489075,720.529053 
	C877.211243,729.844543 902.837036,735.327209 929.014099,737.853699 
	C949.262207,739.807800 969.564758,740.455994 990.013855,739.231873 
	C1017.932068,737.560608 1045.504761,734.368225 1072.490601,726.965637 
	C1096.621338,720.346191 1120.402222,712.893677 1140.585083,697.108765 
	C1143.300293,694.985107 1147.166626,694.333252 1150.500000,692.999939 
"/>
<path fill="none" opacity="1.000000" stroke="#e45b00" stroke-linecap="round" stroke-linejoin="round" stroke-width="21.000000"
	d="
M974.500000,465.000000 
	C974.500000,422.666656 974.493958,380.333344 974.504700,338.000000 
	C974.507080,328.832764 973.868835,326.698059 962.999084,326.601868 
	C917.001221,326.194885 871.000000,326.166656 825.000000,326.000061 
	C824.833313,325.999451 824.654968,326.039581 824.501709,325.994263 
	C818.878296,324.331787 814.290527,331.542755 807.847107,327.228333 
	C803.229431,324.136414 797.002502,326.228760 791.498596,326.041077 
	C786.005005,325.853760 780.500000,326.000000 775.000000,326.000000 
	C769.500000,326.000000 763.977356,325.678040 758.504456,326.063446 
	C744.836304,327.025940 731.156067,326.461853 717.501526,326.335876 
	C704.503662,326.215973 691.500610,326.113403 678.499939,326.006683 
	C669.105652,325.929535 665.683899,329.157593 665.900635,338.502319 
	C666.263794,354.160553 665.491150,369.855133 666.160828,385.493103 
	C666.697632,398.027191 665.505310,410.495544 665.926514,423.002472 
	C666.068726,427.227539 668.060791,431.147125 668.144104,435.007690 
	C668.222534,438.642670 665.950439,442.424072 665.962402,446.500122 
	C666.036926,471.833221 666.134583,497.167786 665.923340,522.499390 
	C665.854187,530.793579 669.223450,533.918823 677.500183,533.963562 
	C697.999573,534.074402 718.500000,534.000000 739.000000,534.000000 
	C739.333313,534.000000 739.671082,534.035645 739.999390,533.994934 
	C752.926331,532.391357 754.719543,531.624817 754.544434,518.999390 
	C754.350220,505.002075 754.562195,490.999634 754.479187,477.000122 
	C754.418945,466.832825 754.069580,456.667023 754.029846,446.499878 
	C753.996521,437.956390 752.679443,435.267273 742.498291,435.113037 
	C719.003662,434.757050 695.500000,435.000000 672.000000,435.000000 
	C671.000000,435.000000 670.000000,435.000000 669.000000,435.000000 
"/>
<path fill="none" opacity="1.000000" stroke="#e45b00" stroke-linecap="round" stroke-linejoin="round" stroke-width="21.000000"
	d="
M813.000000,330.000000 
	C813.000000,371.666656 813.027710,413.333374 812.979309,454.999969 
	C812.968018,464.734589 815.182556,467.446777 825.500061,467.472839 
	C855.666565,467.549133 885.833313,467.500000 916.000000,467.500000 
"/>
<path fill="none" opacity="1.000000" stroke="#e45b00" stroke-linecap="round" stroke-linejoin="round" stroke-width="22.000000"
	d="
M911.500000,523.500000 
	C915.743958,516.157532 922.995361,513.306274 930.509583,511.031738 
	C944.848145,506.691498 959.377014,503.929657 974.491943,503.304474 
	C995.058716,502.453918 1014.688965,505.984161 1034.007080,512.478943 
	C1044.205811,515.907776 1053.080688,521.638245 1062.055908,527.413147 
	C1084.790283,542.041260 1092.935059,548.059387 1107.418213,565.567688 
	C1123.959229,585.563782 1135.251465,608.418945 1142.005615,633.498474 
	C1146.461670,650.044861 1149.328857,666.805664 1149.569702,683.999023 
	C1149.640015,689.026001 1150.437744,694.105957 1156.002441,696.494324 
	C1157.590942,697.176147 1158.923584,698.015869 1161.026001,697.648621 
	C1164.260620,697.083679 1167.666626,697.500000 1171.000000,697.500000 
"/>
<path fill="none" opacity="1.000000" stroke="#e45b00" stroke-linecap="round" stroke-linejoin="round" stroke-width="17.000000"
	d="
M1064.500000,529.500000 
	C1058.124023,540.215637 1047.833740,546.933411 1038.428711,554.410339 
	C1020.173950,568.922729 1000.793701,581.914551 981.478882,594.968750 
	C979.232849,596.486694 977.730469,598.152283 977.451904,600.995300 
	C977.069824,604.893555 974.099060,607.631042 972.482666,610.991638 
	C966.860962,622.679932 961.127441,634.314514 955.516479,646.007935 
	C952.655334,651.970642 948.703674,656.801086 942.500000,659.500000 
"/>
<path fill="none" opacity="1.000000" stroke="#e45b00" stroke-linecap="round" stroke-linejoin="round" stroke-width="21.000000"
	d="
M785.500000,593.750061 
	C772.166687,593.833374 758.833435,593.962585 745.500000,593.989319 
	C725.166748,594.030090 704.833252,593.970520 684.500000,594.010803 
	C671.833191,594.035950 659.166687,594.166687 646.500000,594.250000 
"/>
<path fill="none" opacity="1.000000" stroke="#e45b00" stroke-linecap="round" stroke-linejoin="round" stroke-width="17.000000"
	d="
M984.750000,519.500000 
	C985.597168,523.597534 984.234619,526.633240 981.652039,530.112854 
	C970.828979,544.695618 962.539001,560.784485 955.518433,577.507751 
	C947.649231,596.252258 941.960571,615.716919 937.649597,635.532532 
	C935.944397,643.370605 935.061829,651.531189 941.287720,658.684753 
	C942.660645,660.262268 941.625122,664.153870 941.079651,667.015198 
	C940.456787,670.282898 940.013000,673.666687 941.000000,677.000000 
"/>
<path fill="none" opacity="1.000000" stroke="#e45b00" stroke-linecap="round" stroke-linejoin="round" stroke-width="15.000000"
	d="
M530.500000,373.000000 
	C514.666687,373.000000 498.833344,373.000000 483.000000,373.000000 
"/>
<path fill="none" opacity="1.000000" stroke="#e45b00" stroke-linecap="round" stroke-linejoin="round" stroke-width="15.000000"
	d="
M483.500000,470.500000 
	C498.496979,471.125458 513.496765,471.249390 528.500000,470.750000 
"/>
<path fill="none" opacity="1.000000" stroke="#e45b00" stroke-linecap="round" stroke-linejoin="round" stroke-width="15.000000"
	d="
M483.500000,564.500000 
	C494.166656,564.666687 504.832916,564.891846 515.500244,564.968811 
	C519.332153,564.996399 523.166687,564.666687 527.000000,564.500000 
"/>
<path fill="none" opacity="1.000000" stroke="#e45b00" stroke-linecap="round" stroke-linejoin="round" stroke-width="16.000000"
	d="
M483.500000,325.500000 
	C497.500000,325.500000 511.500000,325.500000 525.500000,325.500000 
"/>
<path fill="none" opacity="1.000000" stroke="#e45b00" stroke-linecap="round" stroke-linejoin="round" stroke-width="15.000000"
	d="
M524.000000,277.500000 
	C512.333313,276.712830 500.667786,276.689758 488.998810,277.482635 
	C487.173889,277.606659 485.333344,277.500000 483.500000,277.500000 
"/>
<path fill="none" opacity="1.000000" stroke="#e45b00" stroke-linecap="round" stroke-linejoin="round" stroke-width="15.000000"
	d="
M522.000000,611.500000 
	C509.166656,610.409668 496.333344,611.101685 483.500000,611.500000 
"/>
<path fill="none" opacity="1.000000" stroke="#e45b00" stroke-linecap="round" stroke-linejoin="round" stroke-width="15.000000"
	d="
M522.000000,422.500000 
	C509.178741,421.404022 496.331818,422.283325 483.500000,422.000000 
"/>
<path fill="none" opacity="1.000000" stroke="#e45b00" stroke-linecap="round" stroke-linejoin="round" stroke-width="15.000000"
	d="
M521.000000,518.500000 
	C508.345215,517.429260 495.665375,518.263855 483.000000,518.000000 
"/>
<path fill="none" opacity="1.000000" stroke="#e45b00" stroke-linecap="round" stroke-linejoin="round" stroke-width="3.000000"
	d="
M1082.500000,526.000000 
	C1078.515747,526.522034 1074.350220,524.868774 1070.500000,527.000000 
"/>
<path fill="none" opacity="1.000000" stroke="#e45b00" stroke-linecap="round" stroke-linejoin="round" stroke-width="3.000000"
	d="
M652.000000,268.000000 
	C650.948364,271.120087 651.754578,274.337952 651.500000,277.500000 
"/>
</svg>